<svg width="64" height="64" viewBox="0 0 64 64" fill="none" xmlns="http://www.w3.org/2000/svg">
<path d="M0 14.5823C0 6.52871 6.28985 0 14.0488 0H49.9512C57.7101 0 64 6.52871 64 14.5823V49.4177C64 57.4713 57.7101 64 49.9512 64H14.0488C6.28985 64 0 57.4713 0 49.4177V14.5823Z" fill="black"/>
<path fill-rule="evenodd" clip-rule="evenodd" d="M49.9512 3.64557H14.0488C8.22958 3.64557 3.51219 8.5421 3.51219 14.5823V49.4177C3.51219 55.4579 8.22959 60.3544 14.0488 60.3544H49.9512C55.7704 60.3544 60.4878 55.4579 60.4878 49.4177V14.5823C60.4878 8.5421 55.7704 3.64557 49.9512 3.64557ZM14.0488 0C6.28985 0 0 6.52871 0 14.5823V49.4177C0 57.4713 6.28985 64 14.0488 64H49.9512C57.7101 64 64 57.4713 64 49.4177V14.5823C64 6.52871 57.7101 0 49.9512 0H14.0488Z" fill="white"/>
<path d="M0.682927 18.4272C0.439024 17.4778 0.637195 17.0032 1.27744 17.0032H4.06707C4.55488 17.0032 4.88262 17.3671 5.0503 18.0949L10.1494 40.9035C10.3628 41.8212 10.5991 42.818 10.8582 43.894C11.1326 44.9699 11.3689 45.9826 11.5671 46.932H11.6814C11.8338 45.9984 12.0091 45.0728 12.2073 44.1551C12.4207 43.2373 12.657 42.1614 12.9162 40.9272L18.1296 18.2848C18.3277 17.4304 18.8155 17.0032 19.593 17.0032H22.7485C23.5259 17.0032 24.0137 17.4304 24.2119 18.2848L29.4253 40.9272C29.6845 42.1614 29.9131 43.2373 30.1113 44.1551C30.3247 45.0728 30.5076 45.9984 30.6601 46.932H30.7744C30.9726 45.9826 31.2012 44.9699 31.4604 43.894C31.7348 42.818 31.9787 41.8212 32.1921 40.9035L37.2912 18.0949C37.4588 17.3671 37.7866 17.0032 38.2744 17.0032H41.064C41.7043 17.0032 41.9024 17.4778 41.6585 18.4272L33.7927 49.2104C33.4878 50.4288 32.9238 51.038 32.1006 51.038H29.2424C28.4802 51.038 27.939 50.3734 27.6189 49.0443L22.1082 26.2832C21.8338 25.1282 21.6357 24.1867 21.5137 23.4589C21.3918 22.7152 21.2851 21.9478 21.1936 21.1566H21.1479C21.0564 21.9478 20.9497 22.7152 20.8277 23.4589C20.7058 24.1867 20.5076 25.1282 20.2332 26.2832L14.7226 49.0443C14.4024 50.3734 13.8613 51.038 13.0991 51.038H10.2409C9.41768 51.038 8.85366 50.4288 8.54878 49.2104L0.682927 18.4272Z" fill="white"/>
<path d="M41.3329 51.038C40.5707 51.038 40.1896 50.6028 40.1896 49.7326V18.3085C40.1896 17.4383 40.5707 17.0032 41.3329 17.0032H59.9686C60.807 17.0032 61.2262 17.3592 61.2262 18.0712V19.8275C61.2262 20.5396 60.807 20.8956 59.9686 20.8956H44.5799V32.1456H58.0021C58.8405 32.1456 59.2598 32.5016 59.2598 33.2136V34.9699C59.2598 35.682 58.8405 36.038 58.0021 36.038H44.5799V49.7326C44.5799 50.6028 44.1988 51.038 43.4366 51.038H41.3329Z" fill="white"/>
</svg>
