<svg width="64" height="60" viewBox="0 0 64 60" fill="none" xmlns="http://www.w3.org/2000/svg">
<path d="M12.2539 7.09915C12.2539 8.75783 10.8773 10.0848 9.18477 10.0848H4.22003V4.11353H9.20734C10.8773 4.09141 12.2539 5.44047 12.2539 7.09915ZM16.6319 7.09915C16.6319 3.18467 13.3822 0 9.3653 0H0V20.1253H4.22003V14.1762H9.3653C13.3822 14.1983 16.6319 11.0136 16.6319 7.09915ZM27.6671 44.4305H42.8547V40.3391H31.842V37.0218C33.512 36.7564 35.1594 36.3583 36.7391 35.7833L38.7927 35.0534L37.3032 31.0505L35.2496 31.7803C34.1439 32.1784 32.9929 32.488 31.842 32.7092V28.3745H42.8547V24.2831H27.6671V32.9746C25.1171 32.7313 23.3117 31.7582 22.0931 30.7188C19.9492 28.8832 17.7377 25.2341 19.2722 18.1128L19.7236 16.0339L15.4584 15.1493L15.0071 17.2282C13.4274 24.4379 14.8942 30.2101 19.2045 33.9034C20.9873 35.4294 23.086 36.4246 25.4104 36.9112C26.1326 37.066 26.8773 37.1544 27.622 37.1987L27.6671 44.4305ZM59.8477 49.5171C59.8477 50.3797 59.7123 51.2422 59.4415 52.0605C59.1707 52.8345 58.787 53.5201 58.2906 54.0951C57.7941 54.6701 57.1622 55.1124 56.4626 55.422C55.7405 55.7538 54.9506 55.9086 54.0705 55.9086C53.1904 55.9086 52.378 55.7538 51.6559 55.422C50.9563 55.1124 50.3244 54.6701 49.8279 54.0951C49.3315 53.5201 48.9478 52.8566 48.677 52.0605C48.4062 51.2422 48.2708 50.3797 48.2708 49.5171C48.2708 48.6104 48.4062 47.7479 48.677 46.9738C48.9478 46.1998 49.3315 45.5142 49.8279 44.9392C50.3244 44.3642 50.9563 43.8997 51.6559 43.5901C52.378 43.2584 53.1678 43.1036 54.0705 43.1036C54.9506 43.1036 55.7631 43.2584 56.4626 43.5901C57.1622 43.8997 57.7941 44.3642 58.2906 44.9392C58.787 45.5142 59.1707 46.1998 59.4415 46.9738C59.7123 47.7479 59.8477 48.5883 59.8477 49.5171ZM64 49.5171C64 48.0133 63.7743 46.62 63.3004 45.3373C62.8491 44.0546 62.1721 42.9488 61.3145 41.9978C60.4344 41.0468 59.3738 40.317 58.1777 39.8083C56.9591 39.2776 55.5825 39.0122 54.0705 39.0122C52.5585 39.0122 51.182 39.2776 49.9408 39.8083C48.7447 40.317 47.6615 41.0689 46.804 41.9978C45.9464 42.9267 45.2694 44.0546 44.8181 45.3373C44.3667 46.62 44.1185 48.0133 44.1185 49.5171C44.1185 51.021 44.3441 52.4143 44.8181 53.697C45.2694 54.9797 45.9464 56.0855 46.804 57.0144C47.6841 57.9432 48.7447 58.6952 49.9408 59.2038C51.182 59.7346 52.5585 60 54.0705 60C55.5825 60 56.9591 59.7346 58.1777 59.2038C59.3738 58.6952 60.4344 57.9654 61.3145 57.0144C62.1721 56.0855 62.8491 54.9797 63.3004 53.697C63.7743 52.4143 64 51.021 64 49.5171Z" fill="#ffffff"/>
</svg>
