<svg width="64" height="64" viewBox="0 0 64 64" fill="none" xmlns="http://www.w3.org/2000/svg">
<path d="M63.9682 31.3826C63.9195 30.9205 63.7986 30.4648 63.5554 29.5541L58.843 11.883C58.3272 9.94896 58.0693 8.98192 57.5566 8.19152C57.1029 7.49264 56.5077 6.8968 55.8082 6.44304C55.0178 5.9304 54.0507 5.67248 52.1166 5.15664L34.4462 0.44496C33.5355 0.20176 33.0798 0.0808 32.6178 0.03216C32.2075 -0.01072 31.7934 -0.01072 31.3832 0.03216C30.9211 0.0808 30.4654 0.20176 29.5547 0.44496L11.8837 5.15728C9.9496 5.67312 8.98256 5.93104 8.19216 6.44368C7.49328 6.89744 6.89744 7.49264 6.44368 8.19216C5.93104 8.98256 5.67312 9.9496 5.15728 11.8837L0.44496 29.5541C0.20176 30.4648 0.0808 30.9205 0.03216 31.3826C-0.01072 31.7928 -0.01072 32.2069 0.03216 32.6171C0.0808 33.0792 0.20176 33.5349 0.44496 34.4456L5.15728 52.116C5.67312 54.0501 5.93104 55.0171 6.44368 55.8075C6.89744 56.5064 7.49264 57.1022 8.19216 57.556C8.98256 58.0686 9.9496 58.3266 11.8837 58.8424L29.5547 63.5547C30.4654 63.7973 30.9211 63.9189 31.3832 63.9675C31.7934 64.0104 32.2075 64.0104 32.6178 63.9675C33.0798 63.9189 33.5355 63.7979 34.4462 63.5547L52.1166 58.8424C54.0507 58.3266 55.0178 58.0686 55.8082 57.556C56.507 57.1022 57.1029 56.507 57.5566 55.8075C58.0693 55.0171 58.3272 54.0501 58.843 52.116L63.5554 34.445C63.7979 33.5342 63.9195 33.0786 63.9682 32.6165C64.011 32.2062 64.011 31.7928 63.9682 31.3826ZM57.3992 33.0478C57.1477 33.8216 56.4763 34.493 55.1336 35.8357L35.8357 55.1336C34.493 56.4763 33.8216 57.1477 33.0478 57.3992C32.3669 57.6206 31.6334 57.6206 30.9525 57.3992C30.1781 57.1477 29.5074 56.4763 28.1646 55.1336L8.86672 35.8357C7.524 34.493 6.85264 33.8216 6.60112 33.0478C6.37968 32.3669 6.37968 31.6334 6.60112 30.9525C6.85264 30.1781 7.524 29.5074 8.86672 28.1646L28.1646 8.86672C29.5074 7.524 30.1787 6.85264 30.9525 6.60112C31.6334 6.37968 32.3669 6.37968 33.0478 6.60112C33.8216 6.85264 34.493 7.524 35.8357 8.86672L55.1336 28.1646C56.4763 29.5074 57.1477 30.1787 57.3992 30.9525C57.6206 31.6334 57.6206 32.3669 57.3992 33.0478Z" fill="#ffffff"/>
</svg>
