<svg width="64" height="64" viewBox="0 0 64 64" fill="none" xmlns="http://www.w3.org/2000/svg">
<path d="M54.7402 9.26133C49.4552 3.96308 42.4782 0.687114 35.0253 0.00438819C34.1504 -0.0770606 33.6571 0.9946 34.278 1.61541L45.8237 13.1593C45.8381 13.1747 45.8462 13.1949 45.8466 13.2159C45.847 13.2369 45.8396 13.2573 45.8258 13.2732C45.812 13.2891 45.7929 13.2994 45.772 13.302C45.7512 13.3047 45.7301 13.2996 45.7128 13.2876C42.4848 10.9493 38.6868 9.5229 34.7174 9.15808C34.1113 9.10228 33.7726 9.84751 34.2043 10.2778L42.0772 18.154C42.0906 18.1694 42.098 18.1892 42.0981 18.2096C42.0982 18.2301 42.091 18.2499 42.0777 18.2655C42.0644 18.281 42.0459 18.2913 42.0257 18.2943C42.0055 18.2974 41.9848 18.2931 41.9675 18.2823C39.8404 16.8329 37.3799 15.9477 34.8168 15.7099C34.7241 15.7008 34.6308 15.7207 34.5499 15.767C34.469 15.8133 34.4045 15.8836 34.3653 15.9682C34.3262 16.0528 34.3144 16.1475 34.3315 16.2391C34.3486 16.3307 34.3938 16.4147 34.4609 16.4795L47.8417 29.8563C47.9066 29.9237 47.9911 29.9692 48.0831 29.9862C48.1752 30.0033 48.2703 29.9912 48.3551 29.9515C48.44 29.9119 48.5103 29.8467 48.5562 29.7651C48.6022 29.6835 48.6215 29.5896 48.6114 29.4965C48.3726 26.9353 47.4873 24.4766 46.0386 22.3509C46.0277 22.3335 46.0235 22.3129 46.0265 22.2926C46.0296 22.2724 46.0399 22.254 46.0554 22.2407C46.071 22.2274 46.0908 22.2201 46.1113 22.2202C46.1317 22.2203 46.1515 22.2278 46.1669 22.2412L53.7197 29.7948C54.1501 30.2257 54.8954 29.8871 54.839 29.2817C54.4757 25.3126 53.0499 21.5146 50.7114 18.2868C50.6995 18.2695 50.6943 18.2484 50.697 18.2275C50.6996 18.2066 50.7099 18.1875 50.7258 18.1737C50.7417 18.16 50.7621 18.1526 50.7831 18.153C50.8042 18.1534 50.8243 18.1615 50.8397 18.1758L62.3854 29.7197C63.0166 30.3514 64.0788 29.8377 63.9954 28.9501C63.3074 21.5069 60.0321 14.5401 54.7389 9.26133" fill="#ffffff"/>
<path d="M9.25978 9.26114C14.5448 3.963 21.5218 0.687099 28.9747 0.0043881C29.8496 -0.077059 30.3429 0.994579 29.722 1.61537L18.1763 13.1591C18.1619 13.1744 18.1538 13.1946 18.1534 13.2156C18.153 13.2366 18.1604 13.257 18.1742 13.273C18.188 13.2889 18.2071 13.2991 18.228 13.3018C18.2488 13.3044 18.2699 13.2993 18.2872 13.2873C21.5152 10.9491 25.3132 9.5227 29.2826 9.15788C29.8887 9.10209 30.2274 9.8473 29.7957 10.2776L21.9222 18.1536C21.9088 18.169 21.9013 18.1888 21.9012 18.2092C21.9011 18.2297 21.9084 18.2495 21.9217 18.2651C21.935 18.2806 21.9534 18.2909 21.9737 18.294C21.9939 18.297 22.0146 18.2928 22.0319 18.2819C24.1592 16.8319 26.6202 15.9464 29.1838 15.7083C29.2765 15.6993 29.3697 15.7194 29.4505 15.7657C29.5313 15.8121 29.5957 15.8824 29.6347 15.9669C29.6738 16.0515 29.6855 16.1461 29.6684 16.2376C29.6513 16.3292 29.6061 16.4131 29.5391 16.4779L16.1583 29.8557C16.0934 29.9231 16.0089 29.9685 15.9169 29.9856C15.8248 30.0027 15.7297 29.9905 15.6449 29.9509C15.56 29.9112 15.4897 29.8461 15.4438 29.7645C15.3978 29.6829 15.3785 29.589 15.3886 29.4959C15.6282 26.9346 16.5141 24.476 17.9633 22.3504C17.9742 22.3331 17.9785 22.3124 17.9754 22.2922C17.9723 22.2719 17.962 22.2535 17.9465 22.2402C17.9309 22.2269 17.9111 22.2196 17.8907 22.2197C17.8702 22.2198 17.8505 22.2273 17.835 22.2407L10.2784 29.7941C9.84733 30.2251 9.10199 29.8865 9.1578 29.2811C9.5225 25.312 10.9494 21.5144 13.2886 18.287C13.3005 18.2697 13.3057 18.2486 13.303 18.2278C13.3004 18.2069 13.2901 18.1878 13.2742 18.174C13.2583 18.1602 13.2379 18.1528 13.2169 18.1532C13.1958 18.1536 13.1757 18.1617 13.1603 18.1761L1.61461 29.7197C0.983448 30.3514 -0.0787544 29.8377 0.00463113 28.9502C0.692243 21.507 3.96762 14.5403 9.26107 9.26178" fill="#ffffff"/>
<path d="M9.25978 54.7383C14.5448 60.0365 21.5217 63.3126 28.9747 63.9956C29.8496 64.0771 30.3429 63.0048 29.722 62.384L18.1763 50.8404C18.1619 50.825 18.1538 50.8049 18.1534 50.7839C18.153 50.7628 18.1604 50.7424 18.1742 50.7265C18.188 50.7106 18.2071 50.7004 18.228 50.6977C18.2488 50.695 18.2699 50.7002 18.2872 50.7122C21.5149 53.0509 25.3131 54.4773 29.2826 54.8415C29.8887 54.898 30.2274 54.1521 29.7957 53.7218L21.9222 45.8478C21.9088 45.8324 21.9013 45.8126 21.9012 45.7922C21.9011 45.7717 21.9084 45.7519 21.9217 45.7364C21.935 45.7208 21.9534 45.7106 21.9737 45.7075C21.9939 45.7044 22.0146 45.7087 22.0319 45.7195C24.1594 47.169 26.6203 48.0543 29.1838 48.2925C29.2765 48.3015 29.3697 48.2814 29.4505 48.235C29.5313 48.1887 29.5957 48.1184 29.6347 48.0338C29.6738 47.9493 29.6855 47.8547 29.6684 47.7631C29.6513 47.6716 29.6061 47.5876 29.5391 47.5229L16.1583 34.1445C16.0934 34.0772 16.009 34.0318 15.917 34.0147C15.825 33.9977 15.73 34.0097 15.6452 34.0493C15.5604 34.0889 15.4901 34.1539 15.4441 34.2354C15.3981 34.3168 15.3787 34.4106 15.3886 34.5037C15.6282 37.065 16.5141 39.5235 17.9633 41.6491C17.9742 41.6665 17.9785 41.6871 17.9754 41.7074C17.9723 41.7276 17.962 41.746 17.9465 41.7593C17.9309 41.7726 17.9111 41.7799 17.8907 41.7798C17.8702 41.7797 17.8505 41.7722 17.835 41.7588L10.2784 34.2055C9.84733 33.7751 9.10199 34.1131 9.1578 34.7185C9.52261 38.6873 10.9495 42.4846 13.2886 45.7119C13.3013 45.7291 13.307 45.7505 13.3046 45.7718C13.3023 45.793 13.292 45.8126 13.2758 45.8267C13.2597 45.8407 13.2388 45.8482 13.2174 45.8476C13.196 45.847 13.1756 45.8384 13.1603 45.8234L1.61461 34.2799C0.983448 33.6488 -0.0787544 34.1625 0.00463113 35.0494C0.692136 42.4926 3.96753 49.4593 9.26107 54.7377" fill="#ffffff"/>
<path d="M54.7402 54.7379C49.4552 60.0364 42.4783 63.3126 35.0253 63.9956C34.1504 64.0771 33.6571 63.0047 34.278 62.3839L45.8237 50.8398C45.8381 50.8245 45.8462 50.8043 45.8466 50.7833C45.847 50.7623 45.8396 50.7418 45.8258 50.7259C45.812 50.71 45.7929 50.6998 45.772 50.6971C45.7512 50.6945 45.7301 50.6996 45.7128 50.7116C42.4851 53.0504 38.6869 54.4769 34.7174 54.8412C34.1113 54.8976 33.7726 54.1517 34.2043 53.7214L42.0772 45.847C42.0906 45.8316 42.098 45.8119 42.0981 45.7914C42.0982 45.7709 42.091 45.7511 42.0777 45.7356C42.0644 45.72 42.0459 45.7098 42.0257 45.7067C42.0055 45.7036 41.9848 45.7079 41.9675 45.7188C39.8404 47.1681 37.3799 48.0535 34.8168 48.2918C34.7241 48.3009 34.6308 48.281 34.5499 48.2347C34.469 48.1884 34.4045 48.1181 34.3653 48.0335C34.3262 47.9489 34.3144 47.8542 34.3315 47.7626C34.3486 47.671 34.3938 47.587 34.4609 47.5222L47.8417 34.1433C47.9066 34.0759 47.991 34.0305 48.083 34.0135C48.175 33.9964 48.27 34.0085 48.3548 34.048C48.4396 34.0876 48.5099 34.1526 48.5559 34.2341C48.6019 34.3156 48.6213 34.4094 48.6114 34.5024C48.3728 37.0637 47.4875 39.5225 46.0386 41.6482C46.0277 41.6655 46.0235 41.6862 46.0265 41.7064C46.0296 41.7266 46.0399 41.7451 46.0554 41.7584C46.071 41.7717 46.0908 41.7789 46.1113 41.7788C46.1317 41.7787 46.1515 41.7713 46.1669 41.7579L53.7197 34.2042C54.1501 33.7738 54.8954 34.1118 54.839 34.7173C54.4757 38.6864 53.0499 42.4845 50.7114 45.7124C50.6987 45.7296 50.693 45.751 50.6954 45.7723C50.6977 45.7935 50.708 45.8131 50.7242 45.8272C50.7403 45.8412 50.7612 45.8487 50.7826 45.8481C50.804 45.8475 50.8244 45.8389 50.8397 45.8239L62.3854 34.2799C63.0166 33.6488 64.0788 34.1625 63.9954 35.0495C63.3076 42.4929 60.0323 49.4598 54.7389 54.7385" fill="#ffffff"/>
</svg>
